<svg width="24" height="24" viewBox="0 0 24 24" fill="none" xmlns="http://www.w3.org/2000/svg">
<rect width="24" height="24" rx="2" fill="#F9FAFB"/>
<path fill-rule="evenodd" clip-rule="evenodd" d="M5.98413 6.33984H18.0161C18.407 6.33984 18.7239 6.65672 18.7239 7.04761V16.9563C18.7239 17.3472 18.407 17.664 18.0161 17.664H5.98413C5.59324 17.664 5.27637 17.3472 5.27637 16.9563V7.04761C5.27637 6.65672 5.59324 6.33984 5.98413 6.33984Z" stroke="#8E8E93" stroke-width="2" stroke-linecap="round" stroke-linejoin="round"/>
<path d="M8.63824 9.87805C8.93141 9.87805 9.16907 9.64039 9.16907 9.34723C9.16907 9.05406 8.93141 8.81641 8.63824 8.81641C8.34508 8.81641 8.10742 9.05406 8.10742 9.34723C8.10742 9.64039 8.34508 9.87805 8.63824 9.87805Z" stroke="#8E8E93" stroke-width="2" stroke-linecap="round" stroke-linejoin="round"/>
<path d="M8.81518 12.0011L10.5846 13.4166L12.7079 10.9395L18.7239 15.5399V16.9554C18.7239 17.3463 18.407 17.6632 18.0161 17.6632H5.98413C5.59324 17.6632 5.27637 17.3463 5.27637 16.9554V15.5399L8.81518 12.0011Z" fill="white" stroke="#8E8E93" stroke-width="2" stroke-linejoin="round"/>
</svg>
