<svg width="54" height="43" viewBox="0 0 54 43" fill="none" xmlns="http://www.w3.org/2000/svg">
<g clip-path="url(#clip0_2_26616)">
<path d="M42.9965 4.02258H18.2241V12.0126H48.2872V8.136C48.2872 5.86765 45.9138 4.02258 42.9965 4.02258Z" fill="#0284C7"/>
<path d="M28.9738 13.2421H0V5.82822C0 3.11157 2.8423 0.901855 6.33636 0.901855H15.6003C16.5211 0.901855 17.4081 1.05278 18.214 1.33636C19.3395 1.73082 20.3064 2.38098 20.9846 3.23045L28.9738 13.2421Z" fill="#152259"/>
<path d="M54 14.902V38.7833C54 41.0546 51.6228 42.9019 48.7014 42.9019H5.29857C2.37717 42.9019 0 41.0546 0 38.7833V10.7825H48.7014C51.6228 10.7825 54 12.6304 54 14.902Z" fill="#152259"/>
<path d="M54 14.902V38.7833C54 41.0546 51.6228 42.9019 48.7014 42.9019H27V10.7825H48.7014C51.6228 10.7825 54 12.6304 54 14.902Z" fill="#152259"/>
<path d="M39 27.0752C39 33.1409 33.841 38.0757 27.5 38.0757C21.159 38.0757 16 33.1409 16 27.0752C16 21.0104 21.159 16.0757 27.5 16.0757C33.841 16.0757 39 21.0104 39 27.0752Z" fill="#F8F9F8"/>
<path d="M31.5784 26.9776C31.2822 27.1728 30.9192 27.268 30.5596 27.268C30.1093 27.268 29.6619 27.1196 29.3487 26.8306L28.582 26.1237V30.7517C28.582 31.431 27.8734 31.9822 27 31.9822C26.1266 31.9822 25.418 31.431 25.418 30.7517V26.1237L24.6513 26.8306C24.0868 27.35 23.0894 27.4163 22.4216 26.9776C21.7542 26.5396 21.6685 25.7635 22.2317 25.2441L25.3632 22.3567C25.7715 21.9811 26.3672 21.7651 27 21.7651C27.6328 21.7651 28.2286 21.9811 28.6368 22.3567L31.7683 25.2441C32.3315 25.7635 32.2458 26.5396 31.5784 26.9776Z" fill="#0284C7"/>
<path d="M31.5784 26.9772C31.2822 27.1723 30.9192 27.2675 30.5596 27.2675C30.1093 27.2675 29.6619 27.1191 29.3487 26.8301L28.582 26.1232V30.7512C28.582 31.4306 27.8734 31.9817 27 31.9817V21.7646C27.6328 21.7646 28.2285 21.9806 28.6368 22.3562L31.7683 25.2436C32.3315 25.763 32.2458 26.5391 31.5784 26.9772Z" fill="#152259"/>
</g>
<defs>
<clipPath id="clip0_2_26616">
<rect width="54" height="42" fill="white" transform="translate(0 0.901855)"/>
</clipPath>
</defs>
</svg>
